# xmcd
#
# Track frame offsets: 
#        300
#        15712
#        32167
#        42576
#        74647
#        92707
#        113381
#        135235
#        150364
#        171273
#        191638
#        218206
#        233133
#        267117
#
# Disc length: 3756 seconds
#
# Revision: 0
# Processed by: cddbd v1.5.2PL0 Copyright (c) Steve Scherf et al.
# Submitted via: ExactAudioCopy v0.99pb4
#
DISCID=bb0ea80e
DTITLE=Leo Kottke - At Liberty Hall CD1
DYEAR=1998
DGENRE=Country
TTITLE0=Too Fast
TTITLE1=William Powell
TTITLE2=Oddball
TTITLE3="Is She Mean?"
TTITLE4=Wonderland By Night
TTITLE5=Rings
TTITLE6=Eggtooth
TTITLE7="Paul Siebel"
TTITLE8=Louise
TTITLE9=Morning Is The Long Way Home
TTITLE10=Intro To "The Heidi Motel"
TTITLE11=The Heidi Motel
TTITLE12="Seka Tavcar"
TTITLE13=Across The Street
EXTD=
EXTT0=
EXTT1=
EXTT2=
EXTT3=
EXTT4=
EXTT5=
EXTT6=
EXTT7=
EXTT8=
EXTT9=
EXTT10=
EXTT11=
EXTT12=
EXTT13=
PLAYORDER=
